<svg width="136" height="40" viewBox="0 0 136 40" fill="none" xmlns="http://www.w3.org/2000/svg">
<rect x="0.0532227" y="-0.00732422" width="40" height="40" rx="8" fill="#051C2C"/>
<g clip-path="url(#clip0_38994_4519)">
<path d="M19.522 19.4927V18.7583C19.522 17.7609 19.1335 16.8232 18.4281 16.1178C18.2869 15.9766 18.1348 15.8474 17.9737 15.7309C18.1829 15.3655 18.3032 14.943 18.3032 14.4927C18.3032 13.1142 17.1817 11.9927 15.8032 11.9927C14.4247 11.9927 13.3032 13.1142 13.3032 14.4927C13.3032 14.9365 13.42 15.3533 13.6236 15.715C12.6463 16.4113 12.0532 17.5445 12.0532 18.7583V19.4927C12.0532 19.7516 12.2631 19.9614 12.522 19.9614H19.0532C19.3121 19.9614 19.522 19.7516 19.522 19.4927ZM15.8032 12.9302C16.6648 12.9302 17.3657 13.6311 17.3657 14.4927C17.3657 15.3542 16.6648 16.0552 15.8032 16.0552C14.9417 16.0552 14.2407 15.3542 14.2407 14.4927C14.2407 13.6311 14.9417 12.9302 15.8032 12.9302ZM18.5845 19.0239H12.9907V18.7583C12.9907 17.8231 13.4611 16.9518 14.2312 16.4346C14.6609 16.7832 15.208 16.9927 15.8032 16.9927C16.3919 16.9927 16.9332 16.7877 17.3608 16.446C17.5053 16.5446 17.6409 16.6564 17.7652 16.7807C18.2935 17.309 18.5845 18.0113 18.5845 18.7583V19.0239Z" fill="white"/>
<path d="M26.9594 24.1178C26.8044 23.9628 26.6362 23.8221 26.4572 23.6969C26.6573 23.3404 26.772 22.9298 26.772 22.4927C26.772 21.1314 25.6645 20.0239 24.3032 20.0239C22.9419 20.0239 21.8345 21.1314 21.8345 22.4927C21.8345 22.9363 21.9527 23.3526 22.1584 23.7128C21.1805 24.409 20.5845 25.5484 20.5845 26.7583V27.5239C20.5845 27.7828 20.7943 27.9927 21.0532 27.9927H27.5845C27.8433 27.9927 28.0532 27.7828 28.0532 27.5239V26.7583C28.0532 25.7609 27.6648 24.8232 26.9594 24.1178ZM24.3032 20.9614C25.1476 20.9614 25.8345 21.6483 25.8345 22.4927C25.8345 23.337 25.1476 24.0239 24.3032 24.0239C23.4589 24.0239 22.772 23.337 22.772 22.4927C22.772 21.6483 23.4589 20.9614 24.3032 20.9614ZM27.1157 27.0552H21.522V26.7583C21.522 25.8229 21.9977 24.9438 22.7728 24.4277C23.1939 24.7614 23.7255 24.9614 24.3032 24.9614C24.8875 24.9614 25.4248 24.757 25.848 24.4163C26.0093 24.5219 26.1597 24.6439 26.2964 24.7807C26.8248 25.309 27.1157 26.0113 27.1157 26.7583V27.0552Z" fill="white"/>
<path d="M20.0532 15.9614H23.3657C23.6242 15.9614 23.8345 16.1717 23.8345 16.4302V17.611L23.6347 17.4112C23.4516 17.2282 23.1548 17.2282 22.9718 17.4112C22.7887 17.5943 22.7887 17.8911 22.9718 18.0741L23.9718 19.0741C24.0633 19.1657 24.1833 19.2114 24.3032 19.2114C24.4232 19.2114 24.5432 19.1657 24.6347 19.0741L25.6347 18.0741C25.8177 17.8911 25.8177 17.5943 25.6347 17.4112C25.4516 17.2281 25.1548 17.2281 24.9718 17.4112L24.772 17.611V16.4302C24.772 15.6548 24.1411 15.0239 23.3657 15.0239H20.0532C19.7943 15.0239 19.5845 15.2338 19.5845 15.4927C19.5845 15.7516 19.7943 15.9614 20.0532 15.9614Z" fill="white"/>
<path d="M20.0532 24.0239H16.7407C16.4823 24.0239 16.272 23.8137 16.272 23.5552V22.3743L16.4718 22.5741C16.5633 22.6657 16.6833 22.7114 16.8032 22.7114C16.9232 22.7114 17.0432 22.6657 17.1347 22.5741C17.3177 22.3911 17.3177 22.0943 17.1347 21.9112L16.1347 20.9112C15.9516 20.7282 15.6548 20.7282 15.4718 20.9112L14.4718 21.9112C14.2887 22.0943 14.2887 22.3911 14.4718 22.5741C14.6548 22.7572 14.9516 22.7572 15.1347 22.5741L15.3345 22.3743V23.5552C15.3345 24.3306 15.9653 24.9614 16.7407 24.9614H20.0532C20.3121 24.9614 20.522 24.7516 20.522 24.4927C20.522 24.2338 20.3121 24.0239 20.0532 24.0239Z" fill="white"/>
</g>
<path d="M60.2926 17.6667C60.2414 17.1511 60.022 16.7505 59.6342 16.465C59.2464 16.1795 58.7201 16.0367 58.0554 16.0367C57.6036 16.0367 57.2223 16.1006 56.9112 16.2285C56.6001 16.3521 56.3615 16.5246 56.1953 16.7462C56.0333 16.9678 55.9524 17.2192 55.9524 17.5005C55.9438 17.7349 55.9929 17.9394 56.0994 18.1141C56.2102 18.2888 56.3615 18.4401 56.5532 18.568C56.745 18.6915 56.9666 18.8002 57.218 18.894C57.4694 18.9834 57.7379 19.0601 58.0234 19.1241L59.1995 19.4053C59.7706 19.5332 60.2947 19.7036 60.772 19.9167C61.2492 20.1297 61.6626 20.3918 62.012 20.7029C62.3615 21.014 62.6321 21.3805 62.8238 21.8023C63.0198 22.2242 63.12 22.7079 63.1242 23.2533C63.12 24.0545 62.9154 24.7491 62.5106 25.3371C62.11 25.9209 61.5305 26.3748 60.772 26.6986C60.0177 27.0182 59.1079 27.178 58.0426 27.178C56.9858 27.178 56.0653 27.0161 55.2812 26.6922C54.5014 26.3684 53.892 25.889 53.4531 25.254C53.0184 24.6148 52.7904 23.8244 52.7691 22.8826H55.4474C55.4772 23.3215 55.6029 23.688 55.8245 23.982C56.0504 24.2718 56.3508 24.4913 56.7258 24.6404C57.1051 24.7853 57.5333 24.8577 58.0106 24.8577C58.4794 24.8577 58.8863 24.7896 59.2315 24.6532C59.5809 24.5168 59.8515 24.3272 60.0433 24.0843C60.235 23.8414 60.3309 23.5623 60.3309 23.2469C60.3309 22.9529 60.2436 22.7057 60.0688 22.5055C59.8984 22.3052 59.647 22.1347 59.3146 21.9941C58.9865 21.8535 58.5838 21.7256 58.1065 21.6106L56.6811 21.2526C55.5774 20.9842 54.7059 20.5644 54.0667 19.9934C53.4275 19.4224 53.11 18.6532 53.1143 17.6859C53.11 16.8932 53.321 16.2008 53.7471 15.6084C54.1775 15.0161 54.7677 14.5538 55.5177 14.2214C56.2677 13.889 57.12 13.7228 58.0745 13.7228C59.0461 13.7228 59.8941 13.889 60.6186 14.2214C61.3473 14.5538 61.914 15.0161 62.3188 15.6084C62.7237 16.2008 62.9325 16.8869 62.9453 17.6667H60.2926ZM67.5678 21.3165V26.9927H64.8448V13.9018H67.4911V18.9067H67.6062C67.8277 18.3272 68.1857 17.8734 68.68 17.5452C69.1743 17.2128 69.7944 17.0467 70.5401 17.0467C71.2219 17.0467 71.8164 17.1958 72.3235 17.4941C72.8348 17.7881 73.2312 18.2121 73.5124 18.7661C73.7979 19.3158 73.9385 19.9742 73.9343 20.7413V26.9927H71.2113V21.2271C71.2155 20.6219 71.0621 20.1511 70.751 19.8144C70.4442 19.4778 70.0138 19.3094 69.4598 19.3094C69.0891 19.3094 68.761 19.3883 68.4755 19.5459C68.1942 19.7036 67.9726 19.9337 67.8107 20.2363C67.653 20.5346 67.5721 20.8947 67.5678 21.3165ZM75.9872 26.9927V17.1745H78.7102V26.9927H75.9872ZM77.3551 15.9089C76.9503 15.9089 76.603 15.7746 76.3132 15.5062C76.0277 15.2334 75.8849 14.9074 75.8849 14.5282C75.8849 14.1532 76.0277 13.8315 76.3132 13.563C76.603 13.2903 76.9503 13.1539 77.3551 13.1539C77.7599 13.1539 78.1051 13.2903 78.3906 13.563C78.6804 13.8315 78.8253 14.1532 78.8253 14.5282C78.8253 14.9074 78.6804 15.2334 78.3906 15.5062C78.1051 15.7746 77.7599 15.9089 77.3551 15.9089ZM86.0813 17.1745V19.2199H80.0217V17.1745H86.0813ZM81.4088 26.9927V16.465C81.4088 15.7533 81.5472 15.1631 81.8242 14.6944C82.1055 14.2256 82.489 13.8741 82.9748 13.6397C83.4606 13.4053 84.0124 13.2881 84.6303 13.2881C85.048 13.2881 85.4294 13.3201 85.7745 13.384C86.124 13.4479 86.3839 13.5055 86.5544 13.5566L86.0686 15.6021C85.962 15.568 85.8299 15.536 85.6722 15.5062C85.5188 15.4763 85.3612 15.4614 85.1992 15.4614C84.7987 15.4614 84.5196 15.5552 84.3619 15.7427C84.2042 15.9259 84.1254 16.1837 84.1254 16.5161V26.9927H81.4088ZM92.8772 17.1745V19.2199H86.9645V17.1745H92.8772ZM88.3069 14.8222H91.0299V23.9756C91.0299 24.2271 91.0682 24.4231 91.1449 24.5637C91.2216 24.7001 91.3282 24.7959 91.4645 24.8513C91.6052 24.9067 91.7671 24.9344 91.9503 24.9344C92.0782 24.9344 92.206 24.9238 92.3338 24.9025C92.4617 24.8769 92.5597 24.8577 92.6279 24.8449L93.0561 26.8712C92.9198 26.9138 92.728 26.9628 92.4809 27.0182C92.2337 27.0779 91.9333 27.1141 91.5796 27.1269C90.9233 27.1525 90.3481 27.0651 89.8537 26.8648C89.3637 26.6646 88.9823 26.3535 88.7096 25.9316C88.4368 25.5097 88.3026 24.9771 88.3069 24.3336V14.8222ZM98.6881 26.9927V13.9018H101.456V24.7107H107.068V26.9927H98.6881ZM108.76 26.9927V17.1745H111.483V26.9927H108.76ZM110.128 15.9089C109.723 15.9089 109.376 15.7746 109.086 15.5062C108.8 15.2334 108.658 14.9074 108.658 14.5282C108.658 14.1532 108.8 13.8315 109.086 13.563C109.376 13.2903 109.723 13.1539 110.128 13.1539C110.533 13.1539 110.878 13.2903 111.163 13.563C111.453 13.8315 111.598 14.1532 111.598 14.5282C111.598 14.9074 111.453 15.2334 111.163 15.5062C110.878 15.7746 110.533 15.9089 110.128 15.9089ZM116.297 21.3165V26.9927H113.574V17.1745H116.169V18.9067H116.284C116.502 18.3357 116.866 17.884 117.377 17.5516C117.889 17.215 118.509 17.0467 119.238 17.0467C119.919 17.0467 120.514 17.1958 121.021 17.4941C121.528 17.7924 121.922 18.2185 122.203 18.7725C122.485 19.3222 122.625 19.9785 122.625 20.7413V26.9927H119.902V21.2271C119.907 20.6262 119.753 20.1574 119.442 19.8208C119.131 19.4799 118.703 19.3094 118.157 19.3094C117.791 19.3094 117.467 19.3883 117.186 19.5459C116.909 19.7036 116.691 19.9337 116.534 20.2363C116.38 20.5346 116.301 20.8947 116.297 21.3165ZM127.149 24.1674L127.155 20.9011H127.551L130.696 17.1745H133.822L129.597 22.1092H128.951L127.149 24.1674ZM124.681 26.9927V13.9018H127.404V26.9927H124.681ZM130.818 26.9927L127.929 22.7164L129.744 20.7924L134.007 26.9927H130.818Z" fill="#051C2C"/>
<defs>
<clipPath id="clip0_38994_4519">
<rect width="16" height="16" fill="white" transform="translate(12.0532 11.9927)"/>
</clipPath>
</defs>
</svg>
